<?xml version="1.0" encoding="UTF-8"?>
<svg version="1.1" xmlns="http://www.w3.org/2000/svg" width="128" height="128">
<path d="M0 0 C42.24 0 84.48 0 128 0 C128 42.24 128 84.48 128 128 C85.76 128 43.52 128 0 128 C0 85.76 0 43.52 0 0 Z " fill="#FDFEFE" transform="translate(0,0)"/>
<path d="M0 0 C1.58167969 0.02320313 1.58167969 0.02320313 3.1953125 0.046875 C5.875 0.25 5.875 0.25 7.875 1.25 C7.47222507 8.79673035 7.05308026 15.98973247 4.875 23.25 C4.215 23.25 3.555 23.25 2.875 23.25 C2.545 22.26 2.215 21.27 1.875 20.25 C1.38 20.745 0.885 21.24 0.375 21.75 C-3.35145843 23.98587506 -5.80411757 23.66151261 -10.125 23.25 C-12.15584643 21.73156621 -12.982731 20.68191847 -13.77734375 18.26953125 C-14.5407087 12.36129566 -13.76165488 8.07703141 -10.125 3.25 C-6.86380167 0.08280517 -4.47012529 -0.10983109 0 0 Z " fill="#298AF1" transform="translate(45.125,49.75)"/>
<path d="M0 0 C0.6170043 6.17004297 -1.55566326 10.99889767 -5.40625 15.7265625 C-8.02983652 17.82285957 -10.78121811 17.1821952 -14 17 C-15.74221711 13.51556578 -15.58675154 9.80112955 -15 6 C-11.04613575 -1.14056082 -7.29987291 -1.05965897 0 0 Z " fill="#F5F9FE" transform="translate(50,53)"/>
<path d="M0 0 C0.97066406 -0.00515625 1.94132812 -0.0103125 2.94140625 -0.015625 C5.4375 0.25 5.4375 0.25 7.4375 2.25 C3.45772924 3.0941938 -0.53257218 3.69687265 -4.5625 4.25 C-4.8925 5.57 -5.2225 6.89 -5.5625 8.25 C-4.86382812 8.51554687 -4.16515625 8.78109375 -3.4453125 9.0546875 C-2.08019531 9.58449219 -2.08019531 9.58449219 -0.6875 10.125 C0.66988281 10.64707031 0.66988281 10.64707031 2.0546875 11.1796875 C4.4375 12.25 4.4375 12.25 6.4375 14.25 C6.27433199 17.35019227 5.67974065 18.93927543 3.765625 21.39453125 C0.76710424 23.78429193 -0.90056693 23.69741531 -4.6875 23.5625 C-5.74195312 23.53800781 -6.79640625 23.51351562 -7.8828125 23.48828125 C-10.5625 23.25 -10.5625 23.25 -12.5625 22.25 C-12.0675 20.765 -12.0675 20.765 -11.5625 19.25 C-6.9425 19.25 -2.3225 19.25 2.4375 19.25 C2.4375 17.6 2.4375 15.95 2.4375 14.25 C1.51517578 14.08564453 1.51517578 14.08564453 0.57421875 13.91796875 C-0.23402344 13.75941406 -1.04226562 13.60085937 -1.875 13.4375 C-3.07576172 13.21126953 -3.07576172 13.21126953 -4.30078125 12.98046875 C-6.85959677 12.15404647 -7.98480944 11.41868214 -9.5625 9.25 C-9.4375 5.6875 -9.4375 5.6875 -8.5625 2.25 C-5.19898987 0.00765991 -3.93939944 -0.02098215 0 0 Z " fill="#2789F1" transform="translate(80.5625,49.75)"/>
<path d="M0 0 C0.66 0.66 1.32 1.32 2 2 C-1.97977076 2.8441938 -5.97007218 3.44687265 -10 4 C-10.33 5.32 -10.66 6.64 -11 8 C-7.37 9.32 -3.74 10.64 0 12 C0.8125 14.6875 0.8125 14.6875 1 18 C-0.6875 20.875 -0.6875 20.875 -4 23 C-8.04659403 23.52196758 -11.95671964 23.56737317 -16 23 C-16.66 22.34 -17.32 21.68 -18 21 C-17.67 20.34 -17.34 19.68 -17 19 C-12.71 19 -8.42 19 -4 19 C-3.67 17.35 -3.34 15.7 -3 14 C-3.69867188 13.80664062 -4.39734375 13.61328125 -5.1171875 13.4140625 C-6.02726562 13.15367188 -6.93734375 12.89328125 -7.875 12.625 C-8.77992187 12.36976562 -9.68484375 12.11453125 -10.6171875 11.8515625 C-13 11 -13 11 -15 9 C-15.48760847 5.91181302 -15.23592119 4.41567068 -13.6875 1.6875 C-9.46678337 -0.96271742 -4.8616099 -0.66364834 0 0 Z " fill="#2286F0" transform="translate(108,50)"/>
<path d="M0 0 C1.0725 0.103125 2.145 0.20625 3.25 0.3125 C3.25 1.3025 3.25 2.2925 3.25 3.3125 C1.27 3.6425 -0.71 3.9725 -2.75 4.3125 C-3.41 6.6225 -4.07 8.9325 -4.75 11.3125 C-3.1 11.3125 -1.45 11.3125 0.25 11.3125 C0.25 12.3025 0.25 13.2925 0.25 14.3125 C-1.73 14.3125 -3.71 14.3125 -5.75 14.3125 C-5.79898437 15.00214844 -5.84796875 15.69179688 -5.8984375 16.40234375 C-6.38728051 22.54659469 -7.27825599 28.3274077 -8.75 34.3125 C-9.74 34.3125 -10.73 34.3125 -11.75 34.3125 C-10.81830908 27.63538172 -9.78189962 20.97476455 -8.75 14.3125 C-9.41 14.3125 -10.07 14.3125 -10.75 14.3125 C-10.75 13.3225 -10.75 12.3325 -10.75 11.3125 C-9.76 11.3125 -8.77 11.3125 -7.75 11.3125 C-7.8325 10.425625 -7.915 9.53875 -8 8.625 C-7.57630566 3.01104998 -5.69168017 0.47430668 0 0 Z " fill="#1881F0" transform="translate(28.75,38.6875)"/>
<path d="M0 0 C2.3125 -0.328125 2.3125 -0.328125 5 -0.25 C6.3303125 -0.22679687 6.3303125 -0.22679687 7.6875 -0.203125 C10 0 10 0 12 1 C11.59722507 8.54673035 11.17808026 15.73973247 9 23 C8.34 23 7.68 23 7 23 C7.33 21.02 7.66 19.04 8 17 C7.01 16.67 6.02 16.34 5 16 C5.474375 14.96875 5.94875 13.9375 6.4375 12.875 C7.84522388 9.61465838 8.56835498 6.53948917 9 3 C5.37 3 1.74 3 -2 3 C-1.34 2.01 -0.68 1.02 0 0 Z " fill="#107DEF" transform="translate(41,50)"/>
<path d="M0 0 C1.98 0 3.96 0 6 0 C5.6893306 2.70855454 5.37652255 5.41683388 5.0625 8.125 C4.97548828 8.88554688 4.88847656 9.64609375 4.79882812 10.4296875 C4.3084513 14.64329577 3.74097022 18.821195 3 23 C2.01 23 1.02 23 0 23 C0.14219564 20.79142945 0.28891847 18.58315013 0.4375 16.375 C0.51871094 15.14523438 0.59992187 13.91546875 0.68359375 12.6484375 C0.96663944 9.38467612 1.41038953 6.22056141 2 3 C1.34 3 0.68 3 0 3 C0 2.01 0 1.02 0 0 Z " fill="#1D83F0" transform="translate(59,50)"/>
<path d="M0 0 C0.97066406 -0.00515625 1.94132812 -0.0103125 2.94140625 -0.015625 C5.4375 0.25 5.4375 0.25 7.4375 2.25 C4.54872942 2.86276952 1.75586379 3.32051409 -1.1875 3.625 C-4.63696342 4.26378952 -5.42548813 4.66309089 -7.5625 7.25 C-8.2225 7.25 -8.8825 7.25 -9.5625 7.25 C-9.25 4.875 -9.25 4.875 -8.5625 2.25 C-5.19898987 0.00765991 -3.93939944 -0.02098215 0 0 Z " fill="#1B83F0" transform="translate(80.5625,49.75)"/>
<path d="M0 0 C4.29 0.33 8.58 0.66 13 1 C12.67 1.99 12.34 2.98 12 4 C10.20866022 4.05391993 8.41686101 4.09275571 6.625 4.125 C5.62726563 4.14820312 4.62953125 4.17140625 3.6015625 4.1953125 C1 4 1 4 -1 2 C-0.67 1.34 -0.34 0.68 0 0 Z " fill="#2789F1" transform="translate(91,69)"/>
<path d="M0 0 C0.66 0.33 1.32 0.66 2 1 C-0.05803488 4.60156104 -2.24535883 7.88992126 -5 11 C-5.66 11 -6.32 11 -7 11 C-6.58485103 6.1565954 -4.53791301 4.18412171 -1 1 C-0.67 0.67 -0.34 0.34 0 0 Z " fill="#1E84F0" transform="translate(39,50)"/>
<path d="M0 0 C3.63 0.66 7.26 1.32 11 2 C11 2.66 11 3.32 11 4 C9.37509046 4.02698189 7.75005367 4.04638757 6.125 4.0625 C4.76761719 4.07990234 4.76761719 4.07990234 3.3828125 4.09765625 C1 4 1 4 -1 3 C-0.67 2.01 -0.34 1.02 0 0 Z " fill="#1881F0" transform="translate(69,69)"/>
<path d="M0 0 C6.0546875 -0.1953125 6.0546875 -0.1953125 8 0 C8.66 0.66 9.32 1.32 10 2 C6.26562152 2.87867729 2.83225427 3.08912219 -1 3 C-0.67 2.01 -0.34 1.02 0 0 Z " fill="#0D7AEF" transform="translate(100,50)"/>
<path d="M0 0 C6.0546875 -0.1953125 6.0546875 -0.1953125 8 0 C8.66 0.66 9.32 1.32 10 2 C6.26562152 2.87867729 2.83225427 3.08912219 -1 3 C-0.67 2.01 -0.34 1.02 0 0 Z " fill="#0E7BEF" transform="translate(78,50)"/>
<path d="M0 0 C0.268125 0.61875 0.53625 1.2375 0.8125 1.875 C1.95556848 4.2995233 1.95556848 4.2995233 5 6 C3.34385343 6.38218767 1.67542976 6.71395102 0 7 C-1 6 -1 6 -1.125 3.5 C-1 1 -1 1 0 0 Z " fill="#0D7BEF" transform="translate(95,54)"/>
</svg>
