<?xml version="1.0" encoding="UTF-8"?>
<svg version="1.1" xmlns="http://www.w3.org/2000/svg" width="204" height="204">
<path d="M0 0 C67.32 0 134.64 0 204 0 C204 67.32 204 134.64 204 204 C136.68 204 69.36 204 0 204 C0 136.68 0 69.36 0 0 Z " fill="#FEFEFE" transform="translate(0,0)"/>
<path d="M0 0 C4.19798093 2.32568144 6.26260294 5.39547977 8.75 9.4375 C9.18570313 8.89480469 9.62140625 8.35210937 10.0703125 7.79296875 C14.07460156 2.98262151 17.34283367 -0.91293631 23.84375 -1.87109375 C29.59888177 -2.19629811 34.05297621 -0.91168218 38.75 2.4375 C40.7540314 4.34424832 42.15309637 6.14195103 43.75 8.4375 C43.75 9.0975 43.75 9.7575 43.75 10.4375 C44.41 10.4375 45.07 10.4375 45.75 10.4375 C46.0284375 9.385625 46.0284375 9.385625 46.3125 8.3125 C48.70178712 3.53392576 52.68512894 0.12579035 57.75 -1.5625 C64.23976378 -2.34331971 69.44234102 -1.47926302 74.75 2.4375 C78.35449373 5.63466288 80.42950352 8.58108576 81.2578125 13.37890625 C81.50294794 19.9076801 80.74609584 24.25337567 76.75 29.4375 C74.47528589 31.49557467 72.4827618 33.0711191 69.75 34.4375 C70.37648438 34.98019531 71.00296875 35.52289063 71.6484375 36.08203125 C72.46570313 36.79746094 73.28296875 37.51289062 74.125 38.25 C74.93710938 38.95769531 75.74921875 39.66539063 76.5859375 40.39453125 C78.75 42.4375 78.75 42.4375 80.75 45.4375 C81.306875 44.53 81.86375 43.6225 82.4375 42.6875 C85.05171545 39.01346747 87.70847678 36.45826161 91.75 34.4375 C98.00915702 33.73711274 103.99249048 33.21866998 109.3125 37 C113.95804135 41.20357653 116.89622307 45.44068208 117.25 51.875 C116.96821167 57.38865826 115.10439712 61.95719929 111.2890625 65.9765625 C106.42563412 70.19811709 102.49514229 71.96056318 96.12890625 71.82421875 C90.41185493 70.89484587 85.38832412 66.80348894 81.75 62.4375 C81.42 61.4475 81.09 60.4575 80.75 59.4375 C80.35167969 59.99179688 79.95335937 60.54609375 79.54296875 61.1171875 C79.01316406 61.84164062 78.48335938 62.56609375 77.9375 63.3125 C77.41542969 64.03179687 76.89335937 64.75109375 76.35546875 65.4921875 C74.75 67.4375 74.75 67.4375 71.75 69.4375 C70.76 69.4375 69.77 69.4375 68.75 69.4375 C68.75 70.0975 68.75 70.7575 68.75 71.4375 C69.306875 71.499375 69.86375 71.56125 70.4375 71.625 C74.52534735 73.06127069 76.81810796 76.34493691 79.5625 79.5625 C81.85659114 85.1166154 81.50304009 91.08978679 79.6875 96.75 C76.53865584 101.11775158 72.90929816 104.71773395 67.75 106.4375 C60.97771335 107.20334825 55.94119455 106.86512883 50.34375 102.8046875 C48.42922556 101.16232585 46.94262468 99.67367127 45.75 97.4375 C45.75 96.4475 45.75 95.4575 45.75 94.4375 C45.09 94.4375 44.43 94.4375 43.75 94.4375 C43.6675 94.994375 43.585 95.55125 43.5 96.125 C42.00233643 100.74279601 38.6852969 103.76711996 34.75 106.4375 C35.6575 106.97375 36.565 107.51 37.5 108.0625 C41.76574909 110.89624821 44.13759027 114.60027081 45.75 119.4375 C46.59099874 125.52873374 45.72250823 129.68083576 42.1796875 134.71484375 C38.82969162 138.7513142 34.70326724 141.96035648 29.453125 142.80859375 C22.94303923 142.98482219 18.62328145 141.86775586 13.75 137.4375 C9.86975194 133.26458117 8.43561587 129.50472 8.25 123.8125 C8.54185076 118.3870692 9.48223943 114.61958961 13.5078125 110.74609375 C15.2181785 109.25385135 16.9541383 107.82498767 18.75 106.4375 C18.028125 105.73625 17.30625 105.035 16.5625 104.3125 C13.75176187 101.50979255 11.25483774 98.51487208 8.75 95.4375 C8.193125 96.345 7.63625 97.2525 7.0625 98.1875 C4.15389409 102.27527047 1.53495698 104.84251434 -3.25 106.4375 C-9.26423174 107.14138786 -14.6476627 107.48795448 -19.75 103.875 C-23.92013326 100.14794339 -26.80967304 96.62101334 -27.58984375 90.98046875 C-27.7858227 85.75175039 -27.33280308 81.81309148 -24.25 77.4375 C-22.05952525 75.23688417 -19.82128156 73.18473229 -17.25 71.4375 C-16.59 71.4375 -15.93 71.4375 -15.25 71.4375 C-15.25 70.7775 -15.25 70.1175 -15.25 69.4375 C-15.971875 69.23125 -16.69375 69.025 -17.4375 68.8125 C-22.20763873 66.48043218 -25.21758651 62.27572327 -27.25 57.4375 C-28.26537806 51.15284422 -27.43904417 46.39383603 -23.76171875 41.19921875 C-21.49094654 38.55291832 -19.04630936 36.51847441 -16.25 34.4375 C-17.343125 33.715625 -18.43625 32.99375 -19.5625 32.25 C-24.01097164 29.06866877 -26.10692543 25.7685633 -27.25 20.4375 C-28.04678898 14.38190377 -27.27572662 10.19222945 -23.75 5.1640625 C-17.61703991 -1.8952301 -8.4554159 -3.75439719 0 0 Z " fill="#161616" transform="translate(57.25,31.5625)"/>
<path d="M0 0 C0.556875 0.7425 1.11375 1.485 1.6875 2.25 C5.24123916 6.47606819 9.42153114 10.41157109 15.04296875 11.3359375 C20.98976066 11.44425794 26.04445075 10.43915118 31 7 C32.81737763 4.71850712 33.80630289 2.69879347 35 0 C35.66 0 36.32 0 37 0 C37.515625 1.0725 38.03125 2.145 38.5625 3.25 C40.93355373 7.46996205 43.69743642 8.93145982 48 11 C47.278125 11.556875 46.55625 12.11375 45.8125 12.6875 C40.65667265 16.92673582 36.67981369 20.21374417 35.7109375 27.03515625 C35.30962487 33.19213681 36.93582729 37.36873342 41 42 C42.92801791 43.52164411 44.89194063 44.72535945 47 46 C47 46.66 47 47.32 47 48 C46.0925 48.5775 45.185 49.155 44.25 49.75 C40.77529311 52.15556631 39.241424 54.47776229 37 58 C36.34 58 35.68 58 35 58 C34.4225 57.0925 33.845 56.185 33.25 55.25 C30.50041263 51.2783738 27.57751769 48.99774878 23.0625 47.25 C16.44072268 46.44736032 11.3816275 46.90185688 6 51 C4.00983909 53.51894762 2.44507832 56.13763332 1 59 C0.46375 58.278125 -0.0725 57.55625 -0.625 56.8125 C-3.60256022 53.28644184 -6.82539679 50.0873016 -11 48 C-11 47.34 -11 46.68 -11 46 C-10.0925 45.401875 -9.185 44.80375 -8.25 44.1875 C-3.78199929 41.18019183 -1.04160235 38.31610255 0 33 C0.74097394 26.42841146 -0.1066181 22.36655343 -4 17 C-6.55305177 14.69602645 -9.13981406 12.90679062 -12 11 C-11.20335937 10.56300781 -11.20335937 10.56300781 -10.390625 10.1171875 C-5.53369441 7.29874968 -2.7408131 4.91062346 0 0 Z " fill="#FBFBFB" transform="translate(66,55)"/>
<path d="M0 0 C4.708003 2.72719686 7.62183297 6.59936593 9.75 11.5625 C10.95091391 17.53935616 9.96537639 22.61416658 6.953125 27.875 C4.11213322 31.8597677 0.43533582 34.31307712 -4.25 35.5625 C-10.51361107 36.3752523 -15.30068354 35.93112129 -20.48828125 32.1640625 C-25.29173338 27.79728784 -27.53115417 23.5955708 -27.875 17.0625 C-27.53115417 10.5294292 -25.29173338 6.32771216 -20.48828125 1.9609375 C-14.16719608 -2.62922171 -7.16809601 -2.95478767 0 0 Z " fill="#171717" transform="translate(164.25,138.4375)"/>
</svg>
