<?xml version="1.0" encoding="UTF-8"?>
<svg version="1.1" xmlns="http://www.w3.org/2000/svg" width="1280" height="1280">
<path d="M0 0 C422.4 0 844.8 0 1280 0 C1280 422.4 1280 844.8 1280 1280 C857.6 1280 435.2 1280 0 1280 C0 857.6 0 435.2 0 0 Z " fill="#1C3B3B" transform="translate(0,0)"/>
<path d="M0 0 C6.17543454 0.00269562 12.35083378 -0.01190858 18.52625358 -0.02409506 C30.59405772 -0.04504533 42.66180185 -0.04971463 54.72961748 -0.04790717 C64.54949944 -0.04652752 74.36936693 -0.05038364 84.18924606 -0.05783224 C85.60622368 -0.05888264 87.02320131 -0.05993025 88.44017894 -0.0609751 C89.14369717 -0.06149445 89.84721539 -0.06201379 90.57205235 -0.06254887 C91.27694576 -0.06306902 91.98183917 -0.06358916 92.70809299 -0.06412506 C93.41427665 -0.06464905 94.12046031 -0.06517305 94.84804347 -0.06571292 C114.67637825 -0.08027079 134.50470774 -0.08859001 154.33304775 -0.08396292 C155.45144976 -0.08370499 155.45144976 -0.08370499 156.59244576 -0.08344184 C160.37038043 -0.08255312 164.14831509 -0.0816083 167.92624975 -0.08064383 C168.67639217 -0.0804528 169.42653459 -0.08026177 170.1994086 -0.08006494 C171.71637468 -0.07967785 173.23334076 -0.07928752 174.75030684 -0.07889397 C198.33832631 -0.07292802 221.92624757 -0.08835473 245.51424491 -0.12050009 C272.09272318 -0.1566912 298.6711392 -0.17589436 325.24964362 -0.17096138 C328.09145975 -0.1704915 330.93327587 -0.17008122 333.77509201 -0.16970968 C334.47467871 -0.1696073 335.1742654 -0.16950491 335.8950517 -0.16939942 C346.39052098 -0.16821169 356.88592229 -0.18007802 367.38137329 -0.19885397 C379.33859229 -0.22023629 391.2956655 -0.22333991 403.25290359 -0.20455438 C409.33901841 -0.19547077 415.42485313 -0.19402397 421.5109452 -0.21491003 C446.96720555 -0.2965454 471.46222009 0.1671787 496.45052421 5.4214921 C497.44042291 5.62610969 498.43032161 5.83072727 499.45021725 6.04154539 C541.96070059 14.96837781 582.37706873 37.2251468 613.45052421 67.4214921 C614.43303154 68.36532755 614.43303154 68.36532755 615.43538749 69.32823038 C624.39873146 77.96496651 632.86228443 86.69773719 640.22396171 96.75059366 C641.43709987 98.40320464 642.67591333 100.03373579 643.91927421 101.6636796 C655.80480146 117.48990065 664.95079311 135.15351355 672.45052421 153.4214921 C672.87108085 154.43131144 672.87108085 154.43131144 673.30013359 155.46153116 C682.68754467 178.44330422 687.66018438 204.7037294 688.45052421 229.4214921 C688.48452323 230.44307413 688.51852226 231.46465616 688.55355155 232.51719522 C689.74024982 274.32270764 680.57809276 315.58844664 660.45052421 352.4214921 C659.82661796 353.58422647 659.20271171 354.74696085 658.55989921 355.9449296 C651.16231534 369.32673782 642.45173201 381.85361058 632.45052421 393.4214921 C631.8150164 394.16785929 631.17950859 394.91422647 630.52474296 395.68321085 C617.8627177 410.16463392 604.19489395 423.34635248 588.45052421 434.4214921 C587.81018241 434.87459757 587.16984062 435.32770304 586.51009452 435.79453897 C577.20026033 442.32725107 567.51511448 448.13074072 557.45052421 453.4214921 C556.76103691 453.78597452 556.0715496 454.15045694 555.36116874 454.52598429 C534.27868734 465.50069204 511.41041687 473.04057174 487.96267599 476.83867538 C485.44816601 477.25594051 482.94661165 477.69864288 480.44153053 478.16543877 C468.14436611 480.37744671 456.22054431 480.8472843 443.74887931 480.80244303 C441.6224605 480.80590786 439.49604348 480.81067792 437.36963016 480.81662476 C431.57930976 480.82905107 425.7891393 480.82300279 419.99881864 480.81366611 C413.73353457 480.80684134 407.46827519 480.81737378 401.20299613 480.82560587 C389.65649426 480.83814205 378.11005255 480.83710226 366.56354924 480.82887146 C355.89332561 480.82130334 345.22311928 480.81936465 334.55289352 480.8229394 C333.84313348 480.82316855 333.13337343 480.82339771 332.40210551 480.82363381 C329.52042742 480.82456793 326.63874935 480.82552315 323.75707128 480.8265131 C296.76317621 480.83567566 269.76931118 480.82739285 242.77542075 480.81122241 C218.83271453 480.79698874 194.89005619 480.79825986 170.94735038 480.81260538 C144.00206934 480.82869625 117.05681483 480.83502413 90.11152965 480.82576859 C87.23500999 480.82480655 84.35849033 480.82386802 81.48197067 480.8229394 C80.77378014 480.82270216 80.06558961 480.82246493 79.33593876 480.82222051 C68.6773804 480.81881906 58.01884132 480.82277842 47.36028564 480.83037806 C35.23095177 480.83898364 23.10168871 480.83646585 10.97235853 480.82053582 C4.79062783 480.8126831 -1.39100604 480.8095101 -7.57273591 480.81948328 C-13.2434044 480.82849318 -18.91388727 480.82339469 -24.58453918 480.80755062 C-26.62401566 480.80422926 -28.66350817 480.80583639 -30.70297413 480.81317799 C-43.21621763 480.85472913 -55.16707001 479.93772644 -67.49845088 477.77630039 C-70.35109253 477.28281984 -73.21349222 476.85955923 -76.07681954 476.43321085 C-81.88075236 475.4429905 -87.47526287 473.91985615 -93.11197579 472.2339921 C-94.14773751 471.92647013 -95.18349923 471.61894815 -96.25064766 471.30210733 C-111.71511219 466.63639189 -126.3122078 461.05818464 -140.54947579 453.4214921 C-141.26990059 453.04121866 -141.9903254 452.66094522 -142.73258126 452.26914835 C-161.2589632 442.46130024 -177.64663658 430.75128273 -193.13931954 416.6089921 C-195.47528833 414.48882593 -197.85274454 412.424519 -200.23697579 410.3589921 C-204.39656288 406.65674181 -207.97402655 402.68005562 -211.54947579 398.4214921 C-212.34869454 397.52172647 -213.14791329 396.62196085 -213.97135079 395.6949296 C-244.03148685 361.60868467 -262.62455224 319.11402537 -269.54947579 274.4214921 C-269.72825264 273.30927286 -269.9070295 272.19705362 -270.09122384 271.05113077 C-271.58622484 261.00464353 -271.9908655 251.12847641 -271.98697579 240.9839921 C-271.98807854 239.72049433 -271.98807854 239.72049433 -271.98920357 238.43147135 C-271.93136443 212.9369946 -267.72647505 188.61767619 -259.54947579 164.4214921 C-259.30616524 163.68624308 -259.0628547 162.95099405 -258.8121711 162.19346476 C-248.70573382 132.05233411 -231.64192512 105.01260587 -210.54947579 81.4214921 C-210.03030587 80.83915812 -209.51113595 80.25682413 -208.9762336 79.65684366 C-203.16361368 73.16674541 -197.27001864 66.98541979 -190.54947579 61.4214921 C-189.63166329 60.61582804 -188.71385079 59.81016397 -187.76822579 58.98008585 C-173.89422484 46.84143474 -158.92456681 36.86058757 -142.54947579 28.4214921 C-141.69144356 27.97418741 -140.83341134 27.52688272 -139.94937813 27.06602335 C-94.8610512 3.78411018 -49.75054825 -0.0480218 0 0 Z " fill="#FEFEFE" transform="translate(431.54947578907013,399.57850790023804)"/>
<path d="M0 0 C0.7321875 0.57621094 1.464375 1.15242188 2.21875 1.74609375 C3.03601563 2.35453125 3.85328125 2.96296875 4.6953125 3.58984375 C15.98852244 13.23976927 22.21542408 27.92556569 28.73855591 40.95838928 C34.50822131 52.467563 40.30863506 62.41988649 49.21875 71.74609375 C50.90743628 73.62002542 52.59486778 75.49508835 54.28125 77.37109375 C58.86343061 82.39187933 63.6093355 87.24329173 68.40625 92.05859375 C69.38573608 93.04496826 69.38573608 93.04496826 70.38500977 94.05126953 C74.24976961 97.90386534 78.23496904 101.55156938 82.36401367 105.1184082 C88.82529858 110.78872365 94.80068688 117.07847691 100.3671875 123.62109375 C102.62303493 126.2100832 104.98795514 128.68522918 107.34375 131.18359375 C133.74205885 159.65208819 158.5662053 199.98364462 168.13671875 237.75390625 C171.47505393 246.98554795 178.2013172 252.94169288 185.24414062 259.47851562 C189.74745989 263.80091551 191.70863792 266.57174387 193.21875 272.74609375 C195.47214115 275.1813113 195.47214115 275.1813113 198.21875 277.05859375 C199.105625 277.71472656 199.9925 278.37085938 200.90625 279.046875 C202.0509375 279.88798828 202.0509375 279.88798828 203.21875 280.74609375 C205.21875 282.74609375 205.21875 282.74609375 205.21875 286.74609375 C202.30874203 288.20109774 199.7098167 287.95506759 196.46875 287.99609375 C195.25703125 288.021875 194.0453125 288.04765625 192.796875 288.07421875 C188.91400691 287.71814788 186.65504807 286.49463182 183.21875 284.74609375 C180.56409487 284.62868464 180.56409487 284.62868464 178.03125 285.12109375 C174.76456394 285.63292475 173.42911959 285.81621695 170.21875 284.74609375 C170.21875 285.73609375 170.21875 286.72609375 170.21875 287.74609375 C161.48575171 287.46885571 156.24123471 284.73958758 150.05078125 278.59375 C145.08107007 273.13918895 145.08107007 273.13918895 143.20332336 270.10565186 C140.06862045 265.16893746 137.04117566 263.15045283 131.65234375 261.0703125 C130.9364357 260.77421585 130.22052765 260.4781192 129.48292542 260.17304993 C127.2149153 259.23992903 124.93651845 258.33628552 122.65625 257.43359375 C121.12224442 256.80991281 119.58903153 256.18427838 118.05664062 255.55664062 C115.89878647 254.6732969 113.74022494 253.79293283 111.57505798 252.92765808 C108.38634789 251.65292672 105.25627939 250.35203829 102.21875 248.74609375 C102.18007813 250.28716797 102.18007813 250.28716797 102.140625 251.859375 C101.7544525 262.46693063 101.08513014 271.92827152 93.21875 279.74609375 C92.46859805 282.70301084 92.46859805 282.70301084 93.21875 285.74609375 C94.97921632 288.62698051 94.97921632 288.62698051 98.21875 290.74609375 C102.02936489 291.40938255 105.79649689 291.354572 109.65625 291.30859375 C122.2085916 291.20589995 122.2085916 291.20589995 127.21875 295.74609375 C128.09375 297.99609375 128.09375 297.99609375 128.21875 299.74609375 C126.5790625 300.17921875 126.5790625 300.17921875 124.90625 300.62109375 C121.17861155 301.56502579 121.17861155 301.56502579 118.21875 303.74609375 C112.45705553 304.46630556 108.27016327 302.83870191 102.96484375 300.62109375 C98.98701447 299.35362041 96.07463045 298.8342203 92.20239258 300.73681641 C89.89279667 302.11799234 87.64619956 303.56717477 85.40625 305.05859375 C76.87411406 310.69576797 69.6051366 314.31262393 59.21875 313.74609375 C60.59722388 309.91393636 62.37106942 306.81865864 64.71875 303.49609375 C65.3271875 302.6246875 65.935625 301.75328125 66.5625 300.85546875 C68.21875 298.74609375 68.21875 298.74609375 70.21875 297.74609375 C64.15902767 297.21388393 60.01427335 299.55144391 54.87304688 302.34570312 C50.27688741 304.6839343 47.39817129 305.03613548 42.21875 303.74609375 C41.55875 303.37484375 40.89875 303.00359375 40.21875 302.62109375 C37.08797147 301.25137814 34.50737479 302.11144686 31.21875 302.74609375 C30.249375 302.93171875 29.28 303.11734375 28.28125 303.30859375 C27.600625 303.45296875 26.92 303.59734375 26.21875 303.74609375 C27.61966992 300.36053728 29.01544811 298.56418401 32.21875 296.74609375 C35.96875 296.05859375 35.96875 296.05859375 39.21875 295.74609375 C29.26168162 292.14803807 21.97161091 292.66713302 12.50634766 297.01831055 C10.7552617 297.86687916 9.01473828 298.73766311 7.28662109 299.63208008 C2.18862977 302.20126181 -1.0317477 303.46203048 -6.78125 301.74609375 C-7.44125 301.08609375 -8.10125 300.42609375 -8.78125 299.74609375 C-12.16422413 299.92414502 -13.54397061 300.53446619 -16.09375 302.80859375 C-16.650625 303.44796875 -17.2075 304.08734375 -17.78125 304.74609375 C-18.78125 303.74609375 -18.78125 303.74609375 -18.84375 300.18359375 C-18.823125 299.04921875 -18.8025 297.91484375 -18.78125 296.74609375 C-20.10125 296.08609375 -21.42125 295.42609375 -22.78125 294.74609375 C-22.78125 293.75609375 -22.78125 292.76609375 -22.78125 291.74609375 C-29.00539458 293.13419624 -29.00539458 293.13419624 -34.78125 295.74609375 C-34.52587431 292.08570882 -33.97450559 290.02039201 -31.84375 286.99609375 C-28.25636614 284.36046479 -25.5244899 283.81178686 -21.18359375 283.203125 C-18.76953883 282.85769646 -18.76953883 282.85769646 -16.73046875 281.71484375 C-12.64090131 279.68235332 -7.76009859 280.16879054 -3.46484375 281.421875 C-2.68238281 281.69386719 -1.89992188 281.96585938 -1.09375 282.24609375 C6.06729736 284.5994896 14.45883795 285.33630745 21.48828125 282.36328125 C24.69139421 280.46615855 26.37398832 278.99287431 28.21875 275.74609375 C28.21875 270.79589401 26.67467105 267.21926515 24.25390625 263.03125 C21.42789406 256.7926948 21.0725983 251.06056544 21.09619141 244.32080078 C21.42032699 233.61073055 21.42032699 233.61073055 16.84375 224.37109375 C14.66426546 222.44772236 14.66426546 222.44772236 12.21875 220.74609375 C10.44373208 219.31376406 8.6731073 217.87597797 6.90625 216.43359375 C5.97039062 215.68207031 5.03453125 214.93054688 4.0703125 214.15625 C-23.15177372 191.14799357 -31.53545399 157.75417507 -37.83349609 124.24536133 C-43.1807104 95.91077644 -43.1807104 95.91077644 -55.86328125 70.26953125 C-56.78125 68.74609375 -56.78125 68.74609375 -56.78125 66.74609375 C-57.6475 67.24109375 -58.51375 67.73609375 -59.40625 68.24609375 C-66.30247113 71.12996804 -74.35696939 71.11117859 -81.25 68.36328125 C-83.31549668 67.28541284 -85.35480091 66.15484077 -87.35546875 64.9609375 C-88.15597656 64.56003906 -88.95648438 64.15914062 -89.78125 63.74609375 C-93.10757488 64.46511255 -93.10757488 64.46511255 -94.40625 67.93359375 C-95.67866899 71.15794344 -96.36066506 74.29729728 -96.78125 77.74609375 C-101.08959717 74.01995566 -103.71399676 70.45465761 -104.78125 64.74609375 C-105.77383428 51.01307836 -104.62164942 39.83265526 -95.78125 28.74609375 C-92.79959186 25.41558818 -89.84765851 22.44049929 -86.09375 19.99609375 C-82.95121483 16.93849197 -82.23396287 13.66829321 -80.8671875 9.5625 C-77.92459345 1.93080823 -71.71698945 -4.79815373 -64.39453125 -8.44140625 C-61.88244508 -9.48778824 -59.36450496 -10.39966614 -56.78125 -11.25390625 C-55.54375 -11.66640625 -54.30625 -12.07890625 -53.03125 -12.50390625 C-35.18338949 -16.48204383 -14.44441169 -10.70964086 0 0 Z " fill="#1D3B3C" transform="translate(438.78125,489.25390625)"/>
<path d="M0 0 C1.91847937 1.1010141 3.83471354 2.20594096 5.75 3.3125 C6.81734375 3.92738281 7.8846875 4.54226563 8.984375 5.17578125 C11.45605163 6.67095351 13.73560384 8.21376516 16 10 C15.50239494 14.69669335 13.33535276 17.71291846 10.5625 21.375 C9.65798977 22.60257329 8.75572245 23.83180174 7.85546875 25.0625 C7.38802246 25.70058594 6.92057617 26.33867188 6.43896484 26.99609375 C3.99675922 30.39711577 1.68501689 33.88339628 -0.625 37.375 C-1.06255615 38.0354834 -1.5001123 38.6959668 -1.95092773 39.37646484 C-2.96924948 40.91634602 -3.98493729 42.45796857 -5 44 C-3.92328293 46.16852831 -2.83021102 48.32568613 -1.7109375 50.47265625 C-1.04964844 51.75462891 -1.04964844 51.75462891 -0.375 53.0625 C0.07101562 53.91972656 0.51703125 54.77695312 0.9765625 55.66015625 C2 58 2 58 2 61 C22.79 61 43.58 61 65 61 C65 67.6 65 74.2 65 81 C44.21 81 23.42 81 2 81 C1.01 83.97 0.02 86.94 -1 90 C-1.763125 91.0725 -2.52625 92.145 -3.3125 93.25 C-3.869375 94.1575 -4.42625 95.065 -5 96 C-3.75900046 100.72921445 -0.71770086 104.55715244 2.0625 108.5 C2.5469458 109.19544922 3.0313916 109.89089844 3.53051758 110.60742188 C4.52719432 112.03781191 5.52581812 113.4668472 6.52636719 114.89453125 C8.35727917 117.51046646 10.1732682 120.13652432 11.98803711 122.76367188 C13.65574425 125.17782478 15.32790722 127.5888835 17 130 C13.8980055 133.34292611 10.56424638 135.76244801 6.75 138.25 C5.67234375 138.95640625 4.5946875 139.6628125 3.484375 140.390625 C2.66453125 140.92171875 1.8446875 141.4528125 1 142 C-2.92752193 138.32317096 -5.84971051 134.51656619 -8.75 130 C-9.61614737 128.67510069 -10.48335843 127.35089623 -11.3515625 126.02734375 C-11.78758789 125.3607373 -12.22361328 124.69413086 -12.67285156 124.00732422 C-14.77613038 120.82609566 -16.94657499 117.69256199 -19.125 114.5625 C-19.87007812 113.49128906 -20.61515625 112.42007813 -21.3828125 111.31640625 C-21.91648437 110.55199219 -22.45015625 109.78757812 -23 109 C-23.84046875 109.15984375 -24.6809375 109.3196875 -25.546875 109.484375 C-38.36739012 111.39875056 -50.16284632 110.44502543 -60.8359375 102.7890625 C-70.0064403 95.2076721 -76.10488359 85.87184995 -77.30859375 73.94140625 C-77.72015872 63.15341528 -74.94146863 53.72074474 -68.3125 45.0625 C-64.21585794 40.81532516 -59.11460988 37.86033818 -54 35 C-53.37609375 34.63519531 -52.7521875 34.27039063 -52.109375 33.89453125 C-43.73770189 29.87839077 -31.84979706 31.4309651 -23 33 C-22.38125 32.0867395 -22.38125 32.0867395 -21.75 31.1550293 C-6.61058115 8.82818825 -6.61058115 8.82818825 0 0 Z " fill="#1E3C3D" transform="translate(778,560)"/>
<path d="M0 0 C5.35397959 4.7672421 9.06017696 10.65989892 13.0625 16.5625 C14.46615409 18.6289552 15.87357165 20.6928602 17.28515625 22.75390625 C17.90269775 23.66470947 18.52023926 24.5755127 19.15649414 25.51391602 C20.95038271 27.93308795 22.74118041 30.00856872 25 32 C27.06185956 32.04994498 27.06185956 32.04994498 29.125 31.25 C38.96908986 28.58856854 47.6475864 29.99824611 57 34 C68.61666187 40.69736118 74.82478919 49.47436758 79 62 C80.0551875 75.00895449 78.48922616 85.08995625 69.75 95.375 C60.28753884 105.10290974 50.6597278 109.19676979 37.0625 109.5 C25.61378127 109.42052307 17.33295013 105.28387139 9.19140625 97.390625 C1.46171801 88.95823782 -2.61625725 80.28640834 -2.21484375 68.7578125 C-1.58265561 60.64281569 0.13707372 55.01396349 4.7578125 48.2265625 C6.3248021 45.8427458 6.3248021 45.8427458 6 42 C4.60880018 39.44445412 4.60880018 39.44445412 2.67578125 36.82421875 C1.97646484 35.83099609 1.27714844 34.83777344 0.55664062 33.81445312 C-0.18392578 32.78255859 -0.92449219 31.75066406 -1.6875 30.6875 C-2.40873047 29.66720703 -3.12996094 28.64691406 -3.87304688 27.59570312 C-7.70594994 22.15719878 -7.70594994 22.15719878 -11.67041016 16.81494141 C-12.85093107 15.26119458 -13.93813495 13.63713207 -15 12 C-13.59679765 7.79039294 -10.54971864 6.52644045 -6.9375 4.3125 C-6.27427734 3.89677734 -5.61105469 3.48105469 -4.92773438 3.05273438 C-3.28986556 2.02759346 -1.64553023 1.01279732 0 0 Z " fill="#1E3C3D" transform="translate(868,561)"/>
<path d="M0 0 C7.95090709 5.66666859 13.57495953 14.77824355 15.875 24.1875 C17.04937631 36.16613837 15.0570635 46.39353254 7.8828125 56.34375 C2.91862453 62.29162499 -2.69670444 66.37812802 -9.8125 69.375 C-10.52921875 69.73078125 -11.2459375 70.0865625 -11.984375 70.453125 C-21.75555366 73.63820534 -34.24627749 72.36377815 -43.30078125 67.85546875 C-54.04158171 61.52457703 -60.52919782 53.51136914 -64.39453125 41.578125 C-66.38900977 31.0651728 -65.41209508 20.58554891 -59.8125 11.375 C-44.81785301 -9.40498323 -21.65399997 -12.75509587 0 0 Z " fill="#1D3C3D" transform="translate(847.8125,483.625)"/>
<path d="M0 0 C7.22221834 5.95756829 14.82392441 14.31972091 15.81787109 24.08178711 C16.33195823 37.69263343 15.47054266 47.81914344 6.3125 58.625 C-2.56084187 67.76190648 -12.10105799 71.43393601 -24.75 71.6875 C-36.32078555 71.63420764 -46.10952127 67.35438455 -54.375 59.1875 C-56.73735017 56.34950886 -58.61255932 53.42846235 -60.375 50.1875 C-60.78878906 49.43855469 -61.20257812 48.68960938 -61.62890625 47.91796875 C-65.77628326 39.20414179 -65.654673 29.05681179 -63.25 19.8125 C-59.69644141 9.87569727 -52.76828293 1.72178398 -43.52734375 -3.38671875 C-28.76482186 -10.32093159 -13.5697288 -9.54325822 0 0 Z " fill="#1D3C3C" transform="translate(847.375,713.8125)"/>
</svg>
