<?xml version="1.0" encoding="UTF-8"?>
<svg version="1.1" xmlns="http://www.w3.org/2000/svg" width="512" height="512">
<path d="M0 0 C1.69048358 -0.00807831 1.69048358 -0.00807831 3.41511834 -0.01631981 C7.17579393 -0.03057972 10.93611657 -0.02350026 14.69680786 -0.01637268 C17.39947416 -0.02043536 20.10212266 -0.02894172 22.80477905 -0.03717041 C29.37458456 -0.05433003 35.9442943 -0.0552043 42.51411639 -0.04995751 C47.85659002 -0.04590911 53.19903543 -0.0473673 58.54150772 -0.05270576 C59.30311206 -0.05345419 60.0647164 -0.05420261 60.84939966 -0.05497371 C62.39681482 -0.05650526 63.94422997 -0.0580436 65.49164511 -0.05958868 C79.98958393 -0.07330356 94.48746872 -0.06788325 108.98540629 -0.05640347 C122.23383589 -0.04647313 135.48212578 -0.05941007 148.73053382 -0.08333766 C162.35092585 -0.10775075 175.97125288 -0.11733104 189.59166634 -0.11068493 C197.2317137 -0.10719749 204.87165366 -0.10939326 212.51168442 -0.12693596 C219.01574124 -0.14168567 225.51961505 -0.14225744 232.02366839 -0.12486505 C235.33861944 -0.11637491 238.65297678 -0.11633915 241.96795273 -0.1295166 C245.57008701 -0.14273975 249.17134063 -0.13116566 252.7734375 -0.11352539 C253.8091589 -0.1231304 254.84488029 -0.1327354 255.91198719 -0.14263147 C267.93302282 -0.02197107 278.13901212 4.44145257 286.89651489 12.6103363 C299.51525225 25.74964864 300.82450489 40.46210403 300.76766968 57.91760254 C300.76997771 59.47089564 300.77315653 61.02418765 300.77712417 62.5774774 C300.7854336 66.82034023 300.78136451 71.0631125 300.77515173 75.30597556 C300.77061245 79.89157116 300.77761828 84.47715158 300.78311157 89.06274414 C300.79199127 98.03559736 300.79008997 107.00841706 300.78428629 115.98127157 C300.77976449 123.27497686 300.77915914 130.56867278 300.78133392 137.86237907 C300.78164039 138.90153728 300.78194686 139.94069549 300.78226261 141.01134334 C300.78290208 143.12254116 300.7835505 145.23373897 300.78420779 147.34493678 C300.78990684 167.12777118 300.78335971 186.91058702 300.77260706 206.69341838 C300.76367062 223.65995564 300.76522519 240.62646554 300.77444458 257.59300232 C300.78515244 277.30793201 300.78935895 297.02284546 300.78322005 316.73777765 C300.78258297 318.84078403 300.78195423 320.94379041 300.78133392 323.0467968 C300.78102537 324.08145027 300.78071682 325.11610375 300.78039892 326.18211036 C300.77867363 333.465721 300.78158349 340.74932133 300.78629303 348.03293037 C300.79190752 356.9110177 300.79037338 365.78906966 300.77973154 374.66715295 C300.77448271 379.19495881 300.77240468 383.72270577 300.77902985 388.25051117 C300.78500763 392.39866807 300.78168408 396.54671168 300.77107474 400.69485836 C300.76884848 402.19200466 300.76995954 403.6891606 300.77482632 405.18630064 C300.82253522 421.08774321 298.54299454 435.46668568 287.13870239 447.45018005 C276.90222389 456.81768755 265.00578162 460.5282441 251.32449341 460.54881287 C250.52531494 460.55377777 249.72613647 460.55874268 248.90274048 460.56385803 C246.27435427 460.5783937 243.64602834 460.58526603 241.01760864 460.59080505 C239.18207296 460.59656209 237.34653727 460.60231974 235.51100159 460.608078 C231.66871868 460.61856248 227.82645656 460.62442232 223.98416138 460.62791443 C219.07042575 460.63340418 214.15696649 460.65745327 209.2433176 460.68588638 C205.45397648 460.70454133 201.66470169 460.70971981 197.87531853 460.71125031 C196.0640912 460.71426917 194.25286482 460.72227175 192.44168282 460.73543549 C189.90501124 460.75256154 187.36901243 460.7506003 184.83230591 460.74412537 C184.09078781 460.75334015 183.34926971 460.76255493 182.58528137 460.77204895 C176.94309435 460.72711686 172.13188864 459.64190319 167.77151489 455.88768005 C164.02236631 450.9232902 163.00354672 447.61157924 163.51370239 441.38768005 C165.45545559 435.44036741 167.97977997 432.48151265 173.51370239 429.38768005 C176.37306445 429.01923136 178.83801828 428.86181255 181.68704224 428.90525818 C182.8834005 428.89938942 182.8834005 428.89938942 184.10392761 428.8934021 C185.82755115 428.88744596 187.5512252 428.89056299 189.27482224 428.90182495 C192.00824963 428.91914299 194.74062458 428.9115485 197.47406006 428.89756775 C204.2622542 428.86797329 211.050245 428.8810879 217.83847046 428.89274597 C223.57822546 428.90096826 229.31751936 428.89293372 235.05720901 428.86361694 C237.74062513 428.85655251 240.42321638 428.87316344 243.10656738 428.89073181 C244.76490717 428.88502035 246.42324364 428.87820131 248.08157349 428.87010193 C248.81949631 428.88141647 249.55741913 428.89273102 250.31770325 428.90438843 C255.74187329 428.84143679 259.98938726 427.42317564 264.51370239 424.38768005 C267.82815128 420.11097182 268.61691929 416.02040127 268.71902466 410.71092224 C268.73896988 409.79026978 268.7589151 408.86961731 268.77946472 407.92106628 C268.79617722 406.93551758 268.81288971 405.94996887 268.83010864 404.93455505 C268.86128029 403.41151764 268.86128029 403.41151764 268.89308167 401.85771179 C268.95840836 398.61776933 269.01738376 395.37774657 269.07620239 392.13768005 C269.11940366 389.93975512 269.16301846 387.74183827 269.20706177 385.54393005 C269.31407246 380.15859799 269.41587013 374.77318625 269.51370239 369.38768005 C234.99863239 369.4465696 200.48363529 369.52112407 165.96864751 369.61666634 C161.89317132 369.6279344 157.81769478 369.63907287 153.74221802 369.65013123 C152.52519492 369.65343675 152.52519492 369.65343675 151.28358549 369.65680905 C138.14901822 369.69217451 125.01445101 369.71704289 111.87985379 369.73802707 C98.40098915 369.75979511 84.92218626 369.79285508 71.44337416 369.83638161 C63.12726191 369.86288105 54.81122659 369.88058899 46.49507421 369.88702609 C40.79117666 369.89228521 35.08737588 369.90851975 29.3835302 369.93334571 C26.09344865 369.94734289 22.80357431 369.95491047 19.51345825 369.95268822 C15.94273955 369.95103784 12.37255577 369.96771581 8.8019104 369.98895264 C7.7668752 369.98410506 6.73183999 369.97925748 5.66544008 369.97426301 C-0.40388801 370.03383758 -4.98803298 370.74182207 -10.48629761 373.38768005 C-16.45695946 380.58309306 -15.70279138 388.01517801 -15.72653198 396.92185974 C-15.73620464 399.11658613 -15.76723618 401.31036195 -15.79879761 403.50486755 C-15.85319361 410.63689566 -15.86189424 416.91913245 -12.48629761 423.38768005 C-8.71484439 427.0598845 -5.0635054 427.71073636 -0.04879761 428.63768005 C5.71851407 429.85705452 8.83111246 431.44551167 12.33401489 436.2118988 C14.62182258 440.43146464 15.05099561 443.84943278 14.06057739 448.52830505 C12.25831805 454.18656113 9.41804308 456.81776617 4.20120239 459.63768005 C-5.0726474 462.22573116 -16.19657396 459.27741405 -24.48629761 454.7353363 C-35.22930767 447.49639397 -42.77853655 437.8229402 -46.48629761 425.38768005 C-47.25283031 420.7815043 -47.61258665 416.35982502 -47.61772537 411.69332027 C-47.62156652 410.37825998 -47.62540766 409.06319969 -47.62936521 407.70828909 C-47.62858509 406.26075672 -47.62770633 404.8132244 -47.6267395 403.36569214 C-47.62932518 401.81870276 -47.63233891 400.27171405 -47.6357429 398.72472626 C-47.64379235 394.48057518 -47.64560133 390.23644103 -47.64634037 385.99228323 C-47.64819452 381.41199567 -47.6557437 376.83171683 -47.66247559 372.25143433 C-47.67604503 362.23883266 -47.68208152 352.226235 -47.68648624 342.21362567 C-47.68925113 335.95849762 -47.69348894 329.70337111 -47.69799042 323.44824409 C-47.71018148 306.12056163 -47.72048098 288.7928804 -47.72386551 271.46519375 C-47.72408508 270.35663963 -47.72430464 269.24808552 -47.72453086 268.10593886 C-47.72474914 266.99477154 -47.72496742 265.88360423 -47.72519231 264.73876518 C-47.72563577 262.48721532 -47.72608233 260.23566546 -47.72653198 257.9841156 C-47.72675341 256.8672753 -47.72697484 255.75043501 -47.72720298 254.59975106 C-47.73114957 236.50982782 -47.74860009 218.4199449 -47.7718915 200.33003723 C-47.79562601 181.74556247 -47.80806832 163.16110793 -47.80923343 144.57661778 C-47.81014903 134.14692651 -47.81587236 123.71728777 -47.83405304 113.28761101 C-47.84948239 104.40514319 -47.85455779 95.52274414 -47.84631494 86.64026546 C-47.84241842 82.11195974 -47.84328907 77.58379238 -47.85737228 73.05550385 C-47.87017123 68.9020042 -47.86886155 64.74874604 -47.85678157 60.59524644 C-47.85483489 59.10059773 -47.85785487 57.60593156 -47.86662593 56.11130732 C-47.96344079 38.48354522 -45.16207607 24.73409603 -32.94332886 11.68455505 C-23.42859124 2.79001496 -12.71507063 -0.07346608 0 0 Z M-12.48629761 35.38768005 C-15.82740384 39.99610245 -16.61170825 43.91364656 -16.60934544 49.51823044 C-16.61133648 50.56076312 -16.61332753 51.6032958 -16.61537892 52.67742038 C-16.61246607 53.82138066 -16.60955323 54.96534093 -16.60655212 56.14396667 C-16.60740655 57.36019943 -16.60826097 58.57643218 -16.60914129 59.82952046 C-16.61050512 63.20677205 -16.6073741 66.58396588 -16.60236323 69.96121049 C-16.59804934 73.60261932 -16.59950582 77.24402634 -16.6002655 80.88543701 C-16.60079014 87.19489211 -16.5976496 93.50433687 -16.59202766 99.81378937 C-16.58390455 108.93622566 -16.58129661 118.05865695 -16.58003967 127.18109646 C-16.57785043 141.98124305 -16.57119381 156.78138412 -16.56173706 171.58152771 C-16.55255964 185.95945712 -16.54548042 200.33738503 -16.54122925 214.71531677 C-16.54096652 215.60140357 -16.5407038 216.48749036 -16.54043312 217.40042827 C-16.53912809 221.84561488 -16.53786438 226.29080151 -16.53662121 230.73598814 C-16.52625258 267.61988937 -16.50856346 304.5037842 -16.48629761 341.38768005 C-12.85629761 340.72768005 -9.22629761 340.06768005 -5.48629761 339.38768005 C14.80870239 338.89268005 14.80870239 338.89268005 35.51370239 338.38768005 C35.51370239 237.07768005 35.51370239 135.76768005 35.51370239 31.38768005 C10.16544755 28.9346968 10.16544755 28.9346968 -12.48629761 35.38768005 Z M66.51370239 31.38768005 C66.51370239 132.69768005 66.51370239 234.00768005 66.51370239 338.38768005 C133.50370239 338.38768005 200.49370239 338.38768005 269.51370239 338.38768005 C269.60109544 286.30467951 269.60109544 286.30467951 269.66018677 234.22166443 C269.66606043 227.20172607 269.67212189 220.1817879 269.67849731 213.16184998 C269.67928856 212.28200933 269.68007981 211.40216869 269.68089503 210.49566621 C269.69394464 196.28941136 269.71759703 182.08319293 269.74516078 167.87695967 C269.77321067 153.29863817 269.78987777 138.72033572 269.79596788 124.14198834 C269.80008518 115.14562595 269.81309162 106.14936643 269.83745179 97.15303571 C269.85330383 90.98476939 269.85810396 84.81655629 269.85420652 78.64827108 C269.85228415 75.08893996 269.85524093 71.52978868 269.87131882 67.9704895 C269.88862736 64.11053932 269.88266638 60.25082339 269.87446594 56.39083862 C269.88320447 55.26728971 269.89194299 54.14374081 269.90094632 52.98614496 C269.85729794 45.40062025 269.15017032 40.34566845 263.95120239 34.51268005 C259.97415127 31.04550728 257.01639909 31.24760061 251.94616699 31.26742554 C251.15824265 31.26656952 250.3703183 31.2657135 249.55851746 31.26483154 C246.89560727 31.26316921 244.23275922 31.26871155 241.56985474 31.27415466 C239.63723566 31.27446082 237.70461648 31.27432781 235.77199745 31.27378941 C230.58207394 31.27356303 225.39217334 31.27937183 220.20225525 31.28639984 C215.3377271 31.29208178 210.47320462 31.29236225 205.6086731 31.29307556 C191.36867981 31.29832933 177.12869081 31.3122904 162.88870239 31.32518005 C131.08495239 31.34580505 99.28120239 31.36643005 66.51370239 31.38768005 Z " fill="#000000" transform="translate(129.48629760742188,-0.3876800537109375)"/>
<path d="M0 0 C1.18230698 -0.01929062 2.36461395 -0.03858124 3.58274841 -0.05845642 C9.01493891 -0.11637946 14.44697951 -0.16582448 19.87939453 -0.19628906 C22.73597866 -0.21401021 25.59155833 -0.24867767 28.44775391 -0.29882812 C31.91378404 -0.35959877 35.37889298 -0.3898423 38.84543037 -0.39946175 C40.78625734 -0.4120056 42.72682463 -0.45392995 44.66722107 -0.49668884 C54.08131647 -0.47511457 62.01462755 1.64328193 69.24986267 7.95240784 C76.79547472 15.84226843 78.36221741 25.77776849 78.39550781 36.31811523 C78.39886642 36.99064331 78.40222504 37.66317139 78.40568542 38.3560791 C78.41510658 40.55698544 78.41713375 42.75781505 78.41821289 44.95874023 C78.42143058 46.50138377 78.42479503 48.04402701 78.42829895 49.58666992 C78.43426735 52.81096097 78.43614111 56.0352253 78.43554688 59.25952148 C78.43544514 63.37838715 78.44911885 67.49708086 78.46631908 71.61590576 C78.4774674 74.79875467 78.47946525 77.98156228 78.47893715 81.16442871 C78.48011216 82.68258255 78.48450691 84.20073763 78.49226952 85.71887207 C78.50213118 87.84582418 78.49916783 89.97240642 78.49316406 92.09936523 C78.49458908 93.30625 78.4960141 94.51313477 78.4974823 95.7565918 C78.11949308 101.03439717 77.30927254 104.98678439 73.81274414 109.02124023 C68.96814648 113.15687238 66.01862968 113.91245109 59.75805664 113.8059082 C52.8015414 112.62163508 47.10517367 108.51135317 41.25024414 104.77124023 C39.30732963 103.56252462 37.35999109 102.36140973 35.40991211 101.16429138 C34.20712713 100.42253622 33.00922033 99.67279278 31.81713867 98.91395569 C27.8079746 96.22302941 27.8079746 96.22302941 23.25024414 95.20874023 C20.96008996 96.30977229 18.96414549 97.43113644 16.84008789 98.79467773 C16.23137344 99.17105377 15.622659 99.54742981 14.99549866 99.93521118 C13.05205695 101.13977269 11.11975375 102.36094326 9.18774414 103.58374023 C7.25028055 104.79606703 5.31068867 106.00485087 3.36927795 107.21084595 C2.16229078 107.96211664 0.95794349 108.71764905 -0.24342346 109.47787476 C-6.40119464 113.34169648 -11.57340533 113.95820173 -18.74975586 113.20874023 C-23.13818022 111.01452805 -26.70108765 108.32127341 -28.31291199 103.5372467 C-28.91563178 100.32457272 -28.90215768 97.22143388 -28.92675781 93.95263672 C-28.93332901 93.22845047 -28.93990021 92.50426422 -28.94667053 91.75813293 C-28.96635107 89.36536542 -28.97805762 86.97266069 -28.98803711 84.57983398 C-28.99211264 83.75875719 -28.99618816 82.9376804 -29.00038719 82.09172249 C-29.02123082 77.74132669 -29.03553697 73.39096223 -29.04492188 69.04052734 C-29.0559514 64.57094018 -29.09031578 60.10185564 -29.13009357 55.63244534 C-29.15638363 52.17577765 -29.16462488 48.71922718 -29.16820335 45.26246834 C-29.17304148 43.61641122 -29.18457526 41.97035834 -29.20324135 40.32439995 C-29.34050989 27.41226433 -28.20021337 16.79470893 -18.90991211 7.08764648 C-13.40128906 2.29624018 -7.24250023 0.11047864 0 0 Z M2.25024414 31.20874023 C2.25024414 44.07874023 2.25024414 56.94874023 2.25024414 70.20874023 C6.33731999 68.5739099 9.30225904 66.94267983 12.93774414 64.58374023 C18.56377179 61.30303707 22.8050132 59.58490289 29.25024414 61.20874023 C33.12037583 62.91350412 36.64268785 65.0153887 40.25024414 67.20874023 C42.23024414 68.19874023 44.21024414 69.18874023 46.25024414 70.20874023 C46.25024414 57.33874023 46.25024414 44.46874023 46.25024414 31.20874023 C31.73024414 31.20874023 17.21024414 31.20874023 2.25024414 31.20874023 Z " fill="#000000" transform="translate(193.749755859375,398.791259765625)"/>
<path d="M0 0 C4.28590933 2.79515826 7.22425239 5.92275717 8.875 10.875 C9.31610759 16.16829103 9.14583065 19.8334826 6.19140625 24.33203125 C3.12787847 27.92281307 -0.03884328 29.55430713 -4.58984375 30.25390625 C-10.26382435 30.5184076 -13.72976465 29.73423104 -18.125 25.875 C-21.85569314 21.62972849 -22.49288263 17.72139268 -22.39453125 12.22265625 C-21.95616145 8.40439172 -20.73582696 5.69791095 -18.125 2.875 C-12.40831398 -1.3164097 -6.78093529 -2.44113671 0 0 Z " fill="#000000" transform="translate(240.125,166.125)"/>
<path d="M0 0 C4.60790295 2.33893556 7.28968346 5.55039458 8.92578125 10.3515625 C9.82742696 15.64873104 8.90685153 19.87995708 5.92578125 24.3515625 C2.24024345 28.0773794 -0.95703491 30.14399546 -6.26171875 30.6640625 C-11.52327414 30.23278747 -15.80960112 28.80014067 -19.46875 24.84375 C-22.4739083 20.27760842 -22.8726787 15.6876119 -22.07421875 10.3515625 C-18.53713092 0.48494907 -9.7824088 -3.05815416 0 0 Z " fill="#000000" transform="translate(240.07421875,75.6484375)"/>
<path d="M0 0 C4.004793 2.0023965 6.6587028 4.17998877 9 8 C10.676194 13.02858199 10.60642735 17.34030411 8.8125 22.25 C5.81191173 26.80261668 2.85491541 28.96968259 -2.375 30.375 C-6.80540607 31.17585284 -9.84604332 30.95941353 -14 29 C-17.28195324 25.91066704 -20.73024818 22.4587215 -21.23828125 17.828125 C-21.40598914 12.00248235 -21.07836348 8.5076649 -17 4 C-11.89289974 -0.73340999 -6.64672924 -0.98909661 0 0 Z " fill="#000000" transform="translate(239,256)"/>
</svg>
